<?xml version="1.0" encoding="UTF-8" standalone="no"?>
<!-- Created with Inkscape (http://www.inkscape.org/) -->

<svg
   xmlns:dc="http://purl.org/dc/elements/1.1/"
   xmlns:cc="http://creativecommons.org/ns#"
   xmlns:rdf="http://www.w3.org/1999/02/22-rdf-syntax-ns#"
   xmlns:svg="http://www.w3.org/2000/svg"
   xmlns="http://www.w3.org/2000/svg"
   xmlns:sodipodi="http://sodipodi.sourceforge.net/DTD/sodipodi-0.dtd"
   xmlns:inkscape="http://www.inkscape.org/namespaces/inkscape"
   width="128"
   height="128"
   viewBox="0 0 128 128"
   id="svg2"
   version="1.1"
   inkscape:version="0.91 r13725"
   sodipodi:docname="user.svg">
  <defs
     id="defs4" />
  <sodipodi:namedview
     id="base"
     pagecolor="#ffffff"
     bordercolor="#666666"
     borderopacity="1.0"
     inkscape:pageopacity="0.0"
     inkscape:pageshadow="2"
     inkscape:zoom="2.8"
     inkscape:cx="87.366367"
     inkscape:cy="70.788535"
     inkscape:document-units="px"
     inkscape:current-layer="layer1"
     showgrid="false"
     units="px"
     inkscape:window-width="1301"
     inkscape:window-height="744"
     inkscape:window-x="65"
     inkscape:window-y="24"
     inkscape:window-maximized="1" />
  <metadata
     id="metadata7">
    <rdf:RDF>
      <cc:Work
         rdf:about="">
        <dc:format>image/svg+xml</dc:format>
        <dc:type
           rdf:resource="http://purl.org/dc/dcmitype/StillImage" />
        <dc:title></dc:title>
      </cc:Work>
    </rdf:RDF>
  </metadata>
  <g
     inkscape:label="Camada 1"
     inkscape:groupmode="layer"
     id="layer1"
     transform="translate(0,-924.36216)">
    <path
       style="fill:#ffffff"
       d="m 64.742466,943.14731 c -8.985924,0 -16.924827,1.87346 -24.90039,5.87696 -5.395362,2.70831 -9.669308,5.777 -14.03125,10.07617 -3.398601,3.3497 -6.084116,6.71316 -8.396485,10.51562 -12.1408799,19.96445 -10.5912569,45.23464 3.888672,63.43944 0.62793,0.7894 1.146444,1.4355 1.152344,1.4356 0.0059,10e-5 -0.01044,-0.6924 -0.03516,-1.5391 -0.15044,-5.153 1.849706,-8.7652 6.990234,-12.625 4.148906,-3.1153 12.399376,-7.6517 17.955078,-9.8731 2.958315,-1.1827 4.009303,-1.7402 4.9375,-2.6171 1.586314,-1.4986 2.057084,-3.7276 1.244141,-5.9004 -0.30736,-0.8215 -1.319705,-2.36422 -2.796875,-4.26369 -4.463213,-5.73918 -7.306463,-12.23048 -8.322266,-19 -0.330119,-2.19999 -0.396986,-6.85754 -0.130859,-9.15235 1.121024,-9.66659 6.777221,-16.77021 15.322265,-19.24805 4.205138,-1.21937 9.63698,-1.31831 13.84375,-0.25195 3.813495,0.96667 6.828277,2.66321 9.533204,5.36719 4.635744,4.63414 6.858744,11.10925 6.607424,19.25 -0.14671,4.7521 -1.19587,9.1508 -3.38086,14.18164 -1.31071,3.01785 -2.07653,4.28932 -4.441408,7.38867 -2.482264,3.25318 -3.361313,4.82604 -3.791016,6.77734 -0.257756,1.1705 -0.21556,2.4303 0.113282,3.3848 0.722922,2.0983 3.212498,3.6361 9.744142,6.0195 1.68111,0.6135 6.59061,2.8928 8.6543,4.0176 5.655507,3.0827 9.231747,6.1412 11.033207,9.4375 1.05701,1.934 1.40963,3.4154 1.53125,6.4141 l 0.0859,2.0957 1.07226,-1.3633 c 5.81539,-7.3891 9.53911,-15.6769 11.17188,-24.8653 0.8187,-4.6071 1.02227,-9.59898 0.59179,-14.51364 -1.67019,-19.06839 -13.17091,-35.96666 -30.345707,-44.58789 -7.975562,-4.0035 -15.914467,-5.87696 -24.900391,-5.87696 z"
       id="path4149"
       inkscape:connector-curvature="0" />
  </g>
</svg>
