<?xml version="1.0" encoding="UTF-8" standalone="no"?>
<!-- Created with Inkscape (http://www.inkscape.org/) -->

<svg
   xmlns:dc="http://purl.org/dc/elements/1.1/"
   xmlns:cc="http://creativecommons.org/ns#"
   xmlns:rdf="http://www.w3.org/1999/02/22-rdf-syntax-ns#"
   xmlns:svg="http://www.w3.org/2000/svg"
   xmlns="http://www.w3.org/2000/svg"
   xmlns:sodipodi="http://sodipodi.sourceforge.net/DTD/sodipodi-0.dtd"
   xmlns:inkscape="http://www.inkscape.org/namespaces/inkscape"
   width="48.598682mm"
   height="48.598682mm"
   viewBox="0 0 172.20005 172.20005"
   id="svg2"
   version="1.1"
   inkscape:version="0.91 r13725"
   sodipodi:docname="back.svg">
  <defs
     id="defs4" />
  <sodipodi:namedview
     id="base"
     pagecolor="#ffffff"
     bordercolor="#666666"
     borderopacity="1.0"
     inkscape:pageopacity="0.0"
     inkscape:pageshadow="2"
     inkscape:zoom="2.8"
     inkscape:cx="77.747458"
     inkscape:cy="65.679848"
     inkscape:document-units="px"
     inkscape:current-layer="layer1"
     showgrid="false"
     inkscape:window-width="1301"
     inkscape:window-height="744"
     inkscape:window-x="65"
     inkscape:window-y="24"
     inkscape:window-maximized="1"
     fit-margin-top="0"
     fit-margin-left="0"
     fit-margin-right="0"
     fit-margin-bottom="0" />
  <metadata
     id="metadata7">
    <rdf:RDF>
      <cc:Work
         rdf:about="">
        <dc:format>image/svg+xml</dc:format>
        <dc:type
           rdf:resource="http://purl.org/dc/dcmitype/StillImage" />
        <dc:title />
      </cc:Work>
    </rdf:RDF>
  </metadata>
  <g
     inkscape:label="Camada 1"
     inkscape:groupmode="layer"
     id="layer1"
     transform="translate(-1070.157,-881.95032)">
    <path
       style="fill:#000000"
       d="m 1147.4106,1052.1038 c -29.294,-1.2816 -55.4577,-9.4762 -67.6609,-21.1918 -3.4615,-3.3232 -5.6119,-6.3941 -6.8128,-9.7294 -0.9006,-2.501 -0.9063,-2.5752 -1.0322,-13.4457 -0.125,-10.79046 -0.1173,-10.94277 0.6007,-11.85559 1.1129,-1.41477 2.13,-1.2044 5.3584,1.10824 23.3369,16.71705 69.7034,23.71625 111.2359,16.79165 13.7907,-2.2993 26.4222,-6.1936 36.2059,-11.1623 3.8473,-1.9538 9.1647,-5.24109 11.1074,-6.86676 1.2989,-1.08682 2.6782,-1.0372 3.5959,0.12937 0.7186,0.91343 0.7259,1.05841 0.5876,11.68739 -0.1286,9.888 -0.1987,10.9402 -0.8625,12.9487 -1.1296,3.4183 -3.0053,6.2762 -6.2896,9.5832 -12.42,12.5059 -38.0433,20.6311 -69.4518,22.0235 -8.1907,0.3631 -7.8037,0.3636 -16.582,-0.02 z m -0.9853,-48.0693 c -20.0619,-1.0904 -38.9081,-5.34146 -52.3887,-11.81709 -11.4085,-5.48025 -18.7098,-12.13674 -21.1866,-19.31538 -0.7695,-2.23036 -0.8093,-2.79316 -0.9378,-13.26009 -0.1325,-10.79601 -0.1252,-10.94228 0.5932,-11.85557 0.4166,-0.5296 1.0577,-0.9247 1.5005,-0.9247 0.4253,0 2.7058,1.2906 5.0678,2.86801 13.9446,9.31233 33.4504,15.25327 58.6853,17.87399 7.9947,0.83028 28.8173,0.83004 36.9961,-3.4e-4 26.5907,-2.7 46.5394,-8.99906 60.586,-19.13084 2.5867,-1.86575 3.6201,-2.01759 4.6678,-0.68583 0.7186,0.91343 0.7259,1.05841 0.5876,11.68741 -0.1286,9.88794 -0.1987,10.94015 -0.8625,12.94863 -5.2473,15.87854 -32.8739,28.4531 -68.6785,31.26 -6.3602,0.4986 -18.6901,0.6748 -24.6302,0.3519 z m -2.2761,-46.78545 c -17.8196,-1.18048 -34.2365,-4.78758 -47.2988,-10.39244 -7.5807,-3.25277 -13.1022,-6.84114 -17.7928,-11.56337 -5.0446,-5.07858 -7.0345,-9.36662 -6.9615,-15.0015 0.066,-5.10148 2.2101,-9.49548 6.9736,-14.29189 26.7098,-26.89439 110.6713,-30.0343 147.6383,-5.52122 4.3921,2.9124 9.197,7.58937 11.0335,10.7396 3.4977,5.99996 3.5977,11.98029 0.3066,18.32254 -1.6713,3.22056 -6.8306,8.39254 -11.3373,11.36508 -13.741,9.06324 -34.3538,14.76519 -59.181,16.3707 -6.1274,0.39624 -17.1803,0.38324 -23.3806,-0.0275 z"
       id="path4135"
       inkscape:connector-curvature="0" />
    <path
       style="fill:#000000"
       d=""
       id="path4966"
       inkscape:connector-curvature="0" />
  </g>
</svg>
