<?xml version="1.0" encoding="UTF-8" standalone="no"?>
<!-- Created with Inkscape (http://www.inkscape.org/) -->

<svg
   xmlns:dc="http://purl.org/dc/elements/1.1/"
   xmlns:cc="http://creativecommons.org/ns#"
   xmlns:rdf="http://www.w3.org/1999/02/22-rdf-syntax-ns#"
   xmlns:svg="http://www.w3.org/2000/svg"
   xmlns="http://www.w3.org/2000/svg"
   xmlns:sodipodi="http://sodipodi.sourceforge.net/DTD/sodipodi-0.dtd"
   xmlns:inkscape="http://www.inkscape.org/namespaces/inkscape"
   width="58.894512mm"
   height="57.046814mm"
   viewBox="0 0 208.68134 202.13437"
   id="svg2"
   version="1.1"
   inkscape:version="0.91 r13725"
   sodipodi:docname="broker.svg">
  <defs
     id="defs4" />
  <sodipodi:namedview
     id="base"
     pagecolor="#ffffff"
     bordercolor="#666666"
     borderopacity="1.0"
     inkscape:pageopacity="0.0"
     inkscape:pageshadow="2"
     inkscape:zoom="0.061871843"
     inkscape:cx="-3568.0137"
     inkscape:cy="1627.0344"
     inkscape:document-units="px"
     inkscape:current-layer="layer1"
     showgrid="false"
     inkscape:window-width="1301"
     inkscape:window-height="744"
     inkscape:window-x="65"
     inkscape:window-y="24"
     inkscape:window-maximized="1"
     fit-margin-top="0"
     fit-margin-left="0"
     fit-margin-right="0"
     fit-margin-bottom="0" />
  <metadata
     id="metadata7">
    <rdf:RDF>
      <cc:Work
         rdf:about="">
        <dc:format>image/svg+xml</dc:format>
        <dc:type
           rdf:resource="http://purl.org/dc/dcmitype/StillImage" />
        <dc:title />
      </cc:Work>
    </rdf:RDF>
  </metadata>
  <g
     inkscape:label="Camada 1"
     inkscape:groupmode="layer"
     id="layer1"
     transform="translate(-1307.3916,-893.32419)">
    <path
       style="fill:#000000"
       d=""
       id="path4966"
       inkscape:connector-curvature="0" />
    <path
       style="fill:#000000"
       d="m 1428.328,1094.0253 c -0.7959,-0.8387 -3.5833,-3.5001 -6.1942,-5.9144 l -4.747,-4.3894 -2.1513,0.9761 c -2.8202,1.2797 -7.8098,1.3156 -10.5388,0.076 -4.2931,-1.9502 -7.1042,-6.2309 -7.123,-10.8467 -0.015,-3.6381 0.8179,-6.1022 2.8741,-8.5044 3.2363,-3.781 8.5337,-5.2512 13.5646,-3.7647 2.7066,0.7997 6.7885,4.8816 7.5882,7.5881 1.2193,4.1268 0.4737,9.2108 -1.7036,11.6167 -0.9103,1.0059 -0.9191,0.9921 6.092,9.6371 4.2041,5.184 4.8805,6.2036 2.339,3.5257 z m -15.7678,-14.2998 c 0.69,-0.6317 -1.665,-2.8994 -3.0111,-2.8994 -1.5957,0 -3.1169,-1.6834 -3.1169,-3.4491 0,-0.8213 0.438,-1.9163 0.9855,-2.4637 2.0538,-2.0539 5.9128,-0.576 5.9128,2.2644 0,0.7034 0.48,1.953 1.0665,2.7768 1.0038,1.4096 1.1052,1.4448 1.7246,0.5978 0.362,-0.495 0.6581,-1.9954 0.6581,-3.3344 0,-2.2173 -0.1919,-2.6262 -2.1525,-4.5868 -1.9962,-1.9962 -2.3408,-2.1525 -4.7458,-2.1525 -2.4051,0 -2.7497,0.1563 -4.7459,2.1525 -1.9284,1.9284 -2.1525,2.3926 -2.1525,4.4591 0,2.3784 0.8391,4.5631 2.1802,5.676 2.0242,1.68 6.0409,2.2009 7.397,0.9593 z m -29.0645,5.992 c -2.26,-0.3493 -5.0282,-1.8198 -5.832,-3.0982 -0.4434,-0.705 -0.2267,-1.1722 1.2094,-2.6083 l 1.7494,-1.7494 1.3884,1.0922 c 1.7621,1.386 5.0702,1.558 5.8763,0.3056 0.8162,-1.2682 -0.041,-2.3184 -3.4316,-4.2018 -5.6398,-3.1333 -7.6071,-6.626 -5.7908,-10.2808 1.2382,-2.4917 3.0759,-3.7177 5.9927,-3.9979 3.0292,-0.2911 5.4454,0.4713 7.1574,2.2582 l 1.3129,1.3704 -1.6542,1.6033 -1.6543,1.6033 -2.0711,-1.0795 c -1.6969,-0.8845 -2.2883,-0.9806 -3.273,-0.532 -0.661,0.3012 -1.2018,0.8689 -1.2018,1.2615 0,0.7891 2.2646,2.7564 3.1728,2.7564 1.1719,0 5.2372,2.9875 6.1885,4.5477 1.3315,2.1839 1.2799,5.2183 -0.1241,7.3018 -1.9244,2.8556 -5.0675,4.0576 -9.0149,3.4475 z m 50.9039,-0.2026 c -2.9172,-1.0852 -4.2221,-2.1438 -5.4049,-4.3845 -0.9946,-1.8844 -1.1194,-2.9358 -1.286,-10.8331 l -0.1845,-8.7461 2.8811,0 2.8812,0 -0.163,5.0517 c -0.2533,7.853 0.2302,11.1076 1.8981,12.7755 1.8865,1.8864 4.0227,1.869 5.9402,-0.048 l 1.4404,-1.4405 0,-7.9218 0,-7.9217 2.9564,0 2.9564,0 0,6.2824 c 0,10.6271 -1.0774,14.1622 -4.9587,16.3436 -2.3617,1.3274 -6.5856,1.726 -8.9539,0.845 z m -78.751,-1.1745 c -3.2409,-1.6436 -5.5389,-4.525 -6.3692,-7.9863 -1.7589,-7.332 3.4967,-14.6694 10.8904,-15.2042 9.7598,-0.706 16.3289,9.1245 12.0041,17.964 -2.9496,6.0289 -10.3365,8.3651 -16.5253,5.2265 z m 7.5363,-4.0884 c 3.8997,-1.083 5.8175,-5.9683 3.899,-9.9316 -1.2123,-2.5043 -3.2019,-3.8418 -5.7147,-3.8418 -4.0136,0 -6.6696,2.8665 -6.6728,7.2015 0,2.8137 1.0339,4.5609 3.65,6.1562 1.7517,1.0682 2.3148,1.1166 4.8385,0.4157 z m 135.3895,4.4475 c -2.9243,-1.3666 -4.2672,-2.6766 -5.798,-5.656 -4.0805,-7.9416 1.7808,-17.9366 10.5402,-17.9742 5.0153,-0.022 8.974,2.2628 11.2922,6.5158 3.2188,5.9054 0.9274,13.7512 -4.8865,16.7316 -3.0195,1.5479 -8.269,1.7281 -11.1479,0.3828 z m 8.8693,-5.3352 c 5.3449,-3.8339 2.8202,-12.8775 -3.5968,-12.8838 -7.076,-0.01 -9.3413,9.4798 -3.1829,13.3295 1.8806,1.1755 4.7859,0.9845 6.7797,-0.4457 z m -200.0521,-5.9873 0,-11.8258 2.9564,0 c 2.8251,0 2.9565,0.055 2.9565,1.2319 0,1.4248 0.5757,1.5803 1.541,0.4164 2.5481,-3.0725 9.9346,-2.6665 12.1181,0.666 l 0.7741,1.1814 1.2832,-1.2289 c 4.1077,-3.9345 11.0631,-3.5533 13.6016,0.7454 0.8754,1.4824 1.0034,2.7285 1.1463,11.1541 l 0.1608,9.4852 -2.9941,0 -2.9941,0 0,-7.8606 c 0,-4.7928 -0.2172,-8.3375 -0.5566,-9.0824 -1.074,-2.3572 -4.3082,-2.7832 -6.5329,-0.8605 -1.8369,1.5875 -2.2725,3.6749 -2.2725,10.8893 l 0,6.9142 -2.6584,0 -2.6585,0 -0.2069,-7.7607 c -0.1338,-5.0179 -0.4359,-8.2277 -0.8547,-9.0823 -1.2042,-2.4573 -4.3621,-2.9153 -6.6239,-0.9605 -1.8369,1.5875 -2.2725,3.6749 -2.2725,10.8893 l 0,6.9142 -2.9565,0 -2.9564,0 0,-11.8257 z m 146.8363,0 0,-11.8258 2.7101,0 2.71,0 0,11.8258 0,11.8257 -2.71,0 -2.7101,0 0,-11.8257 z m 11.8257,2.4636 0,-9.362 -1.4782,0 c -1.4454,0 -1.4782,-0.055 -1.4782,-2.4637 0,-2.4089 0.033,-2.4637 1.4782,-2.4637 l 1.4782,0 0,-4.4346 0,-4.4347 2.9565,0 2.9564,0 0,4.4347 0,4.4346 1.7246,0 1.7246,0 0,2.4637 0,2.4637 -1.7246,0 -1.7246,0 0,9.362 0,9.3621 -2.9564,0 -2.9565,0 0,-9.3621 z m 13.7967,0 0,-9.362 -1.6014,0 c -1.5932,0 -1.6014,-0.013 -1.6014,-2.4637 0,-2.451 0.01,-2.4637 1.6014,-2.4637 l 1.6014,0 0,-4.4346 0,-4.4347 2.7101,0 2.7101,0 0,4.4347 0,4.4346 1.7246,0 1.7245,0 0,2.4637 0,2.4637 -1.7245,0 -1.7246,0 0,9.362 0,9.3621 -2.7101,0 -2.7101,0 0,-9.3621 z m -25.3985,-17.9625 c -2.3444,-2.3445 -0.746,-6.1817 2.575,-6.1817 1.5668,0 3.6067,2.0901 3.6067,3.6956 0,0.7021 -0.5443,1.8209 -1.2095,2.4861 -0.6652,0.6652 -1.7839,1.2094 -2.486,1.2094 -0.7022,0 -1.821,-0.5442 -2.4862,-1.2094 z m -42.7267,-12.5873 c -0.1485,-0.4065 -0.6245,-5.8389 -1.0578,-12.0721 -3.5064,-50.43738 -3.7073,-52.68146 -4.7886,-53.46215 -6.4674,-4.66994 -8.5107,-9.64316 -6.6024,-16.06932 0.8806,-2.965 3.5767,-6.2431 6.3465,-7.71644 1.6393,-0.87195 2.866,-1.08693 6.2295,-1.09166 3.6805,-0.005 4.4658,0.15723 6.4769,1.33946 2.6169,1.53843 4.5411,3.64661 5.6847,6.22837 1.0632,2.40028 1.0473,8.1094 -0.03,10.54541 -1.0771,2.43699 -3.8826,5.50769 -5.7318,6.27365 -0.8102,0.33556 -1.4834,0.86038 -1.4961,1.16622 -0.2694,6.45074 -4.8408,65.38046 -5.0314,64.85856 z m -81.0237,-12.4417 c -6.5976,-8.177 -13.5812,-20.6453 -16.9041,-30.1802 -4.3295,-12.42307 -6.1665,-24.57264 -5.7724,-38.17816 0.2697,-9.31222 0.9302,-14.17714 3.0879,-22.74535 4.1281,-16.39242 12.7227,-32.17818 24.4971,-44.99372 l 3.149,-3.42748 13.0981,11.7835 13.0981,11.7835 -3.8665,4.0846 c -8.1269,8.58559 -14.0006,19.71013 -16.8279,31.87164 -0.757,3.25606 -1.1071,6.75342 -1.2744,12.72985 -0.2647,9.45641 0.4792,15.29355 2.937,23.04857 1.3541,4.27245 6.1067,14.78215 6.6847,14.78215 0.2528,0 2.6221,-2.0571 6.692,-5.81011 l 2.388,-2.20215 -1.7495,-3.75447 c -9.7727,-20.97187 -5.6284,-46.02713 10.4529,-63.19446 l 3.3746,-3.60257 4.1378,3.63953 c 2.2758,2.00174 7.8306,6.94834 12.3441,10.99245 l 8.2063,7.35291 -3.3905,3.33051 c -7.7715,7.63404 -9.7487,18.23 -5.2009,27.87232 2.2702,4.81332 5.8678,8.5843 10.418,10.92023 2.6567,1.36391 3.696,2.16569 3.7284,2.87647 0.025,0.54201 0.1933,2.92564 0.3745,5.29694 0.3593,4.7039 0.4269,4.6074 -2.6325,3.7602 -5.9369,-1.64388 -13.4386,-6.83247 -17.3693,-12.01358 -5.1785,-6.82572 -7.2528,-13.66489 -6.8745,-22.666 0.2772,-6.59754 1.2085,-10.09391 4.1461,-15.56692 l 1.7435,-3.24843 -2.4023,-2.2345 c -1.3213,-1.22898 -3.1007,-2.81701 -3.9543,-3.52897 l -1.552,-1.29446 -1.8147,2.734 c -2.3601,3.55558 -4.4091,8.11562 -5.7947,12.89597 -0.9626,3.32101 -1.1082,4.93237 -1.0819,11.96789 0.028,7.38148 0.1527,8.52937 1.3595,12.46463 1.5946,5.20032 3.6197,9.35786 6.6148,13.58049 l 2.222,3.13278 -1.9105,1.88192 c -1.0509,1.03508 -6.8801,6.31338 -12.9539,11.72968 l -11.0433,9.8477 -1.9038,-2.2976 c -7.4168,-8.951 -13.6031,-21.99398 -16.2607,-34.28384 -1.2502,-5.7815 -1.7565,-20.34909 -0.9262,-26.65128 1.1355,-8.61958 4.1459,-18.32117 8.1793,-26.35991 1.3636,-2.71764 5.6381,-9.42043 8.3618,-13.1121 0.7371,-0.999 0.6011,-1.18827 -3.4521,-4.8042 -2.3207,-2.07033 -4.4265,-3.76423 -4.6796,-3.76423 -1.1996,0 -8.7703,11.61758 -12.0807,18.53855 -15.2456,31.87276 -10.9053,69.56894 11.2445,97.65981 2.0783,2.6359 2.3504,3.2146 1.7696,3.7638 -2.2674,2.1438 -7.5944,6.6718 -7.8492,6.6718 -0.1664,0 -1.4206,-1.3859 -2.7872,-3.0797 z m 155.086,-0.438 c -2.1814,-1.9347 -3.9661,-3.6184 -3.9661,-3.7416 0,-0.1231 1.5231,-2.2541 3.3847,-4.7357 16.5031,-21.9984 22.5825,-48.38924 17.2575,-74.91413 -2.5896,-12.8987 -8.9626,-26.87315 -17.0577,-37.40279 l -2.1923,-2.85173 -2.0511,1.82246 c -6.8159,6.05595 -6.8554,6.10364 -6.0074,7.25384 8.1617,11.07065 13.3942,22.6122 15.7835,34.81444 1.117,5.704 1.5171,18.35907 0.7734,24.45642 -1.8205,14.92487 -8.5434,30.83399 -17.4505,41.29529 l -1.6535,1.942 -1.2261,-0.9645 c -0.6743,-0.5304 -6.5338,-5.7307 -13.021,-11.5563 l -11.7949,-10.59184 3.0214,-4.4619 c 5.1847,-7.65687 7.6764,-15.93006 7.6352,-25.35188 -0.012,-2.85379 -0.2505,-6.40152 -0.529,-7.88382 -1.0898,-5.79986 -3.8076,-12.48961 -6.9005,-16.9849 -1.3483,-1.95975 -1.6418,-2.15622 -2.403,-1.60879 -1.7801,1.28022 -6.9588,6.0301 -6.9588,6.38259 0,0.20131 0.6573,1.40247 1.4606,2.66924 1.9596,3.08987 3.9223,9.14604 4.3996,13.57567 1.1502,10.67302 -2.3299,20.8304 -9.7455,28.44371 -3.9505,4.05584 -11.3481,8.29252 -16.0812,9.20982 l -1.4889,0.2885 0.341,-4.10415 c 0.1875,-2.25729 0.3586,-4.66772 0.3801,-5.35657 0.032,-1.00583 0.5484,-1.50241 2.6261,-2.52258 8.5619,-4.20395 13.7136,-12.3747 13.7749,-21.84747 0.045,-6.95127 -2.3385,-12.50754 -7.5293,-17.55141 l -3.3569,-3.26198 4.2837,-3.89662 c 2.3561,-2.14313 7.2772,-6.53395 10.9358,-9.75736 3.6586,-3.2234 7.2628,-6.41933 8.0093,-7.10206 l 1.3574,-1.24132 1.7732,1.69581 c 4.414,4.22108 10.2996,12.83826 12.7233,18.62796 6.2517,14.93472 6.1491,31.00107 -0.2923,45.75211 l -1.9829,4.54099 2.8795,2.66025 c 1.5837,1.46314 3.5885,3.2545 4.4551,3.9808 l 1.5756,1.3206 0.7399,-1.1308 c 1.1977,-1.8301 4.5265,-9.24764 5.7041,-12.71007 3.9711,-11.67639 4.5257,-26.8328 1.4232,-38.88639 -2.8828,-11.19966 -8.6412,-21.71321 -16.4242,-29.98657 l -3.6528,-3.88294 12.8373,-11.54094 c 7.0605,-6.34751 12.9969,-11.60232 13.1919,-11.67735 0.8054,-0.30982 10.0373,10.78755 14.0823,16.9279 20.9035,31.73176 22.6204,74.03902 4.3377,106.88606 -4.0007,7.1877 -11.9819,18.47 -13.0699,18.4758 -0.19,0 -2.1301,-1.5811 -4.3115,-3.5158 z"
       id="path5040"
       inkscape:connector-curvature="0"
       inkscape:export-filename="/home/antonio/projetos/node/cardiocare/frontend/src/assets/slides/broker.svg"
       inkscape:export-xdpi="9"
       inkscape:export-ydpi="9" />
  </g>
</svg>
