<?xml version="1.0" encoding="UTF-8" standalone="no"?>
<!-- Created with Inkscape (http://www.inkscape.org/) -->

<svg
   xmlns:dc="http://purl.org/dc/elements/1.1/"
   xmlns:cc="http://creativecommons.org/ns#"
   xmlns:rdf="http://www.w3.org/1999/02/22-rdf-syntax-ns#"
   xmlns:svg="http://www.w3.org/2000/svg"
   xmlns="http://www.w3.org/2000/svg"
   xmlns:sodipodi="http://sodipodi.sourceforge.net/DTD/sodipodi-0.dtd"
   xmlns:inkscape="http://www.inkscape.org/namespaces/inkscape"
   width="60.833275mm"
   height="45.608734mm"
   viewBox="0 0 215.55097 161.60575"
   id="svg2"
   version="1.1"
   inkscape:version="0.91 r13725"
   sodipodi:docname="front.svg">
  <defs
     id="defs4" />
  <sodipodi:namedview
     id="base"
     pagecolor="#ffffff"
     bordercolor="#666666"
     borderopacity="1.0"
     inkscape:pageopacity="0.0"
     inkscape:pageshadow="2"
     inkscape:zoom="0.35"
     inkscape:cx="693.44415"
     inkscape:cy="276.35717"
     inkscape:document-units="px"
     inkscape:current-layer="layer1"
     showgrid="false"
     inkscape:window-width="1301"
     inkscape:window-height="744"
     inkscape:window-x="65"
     inkscape:window-y="24"
     inkscape:window-maximized="1"
     fit-margin-top="0"
     fit-margin-left="0"
     fit-margin-right="0"
     fit-margin-bottom="0" />
  <metadata
     id="metadata7">
    <rdf:RDF>
      <cc:Work
         rdf:about="">
        <dc:format>image/svg+xml</dc:format>
        <dc:type
           rdf:resource="http://purl.org/dc/dcmitype/StillImage" />
        <dc:title />
      </cc:Work>
    </rdf:RDF>
  </metadata>
  <g
     inkscape:label="Camada 1"
     inkscape:groupmode="layer"
     id="layer1"
     transform="translate(-365.96441,-837.72584)">
    <path
       style="fill:#000000"
       d=""
       id="path4966"
       inkscape:connector-curvature="0" />
    <path
       style="fill:#000000"
       d="m 430.10283,995.69519 c 0,-3.5059 0.33939,-3.6364 9.45469,-3.6364 l 9.4547,0 0,-10.9093 0,-10.9092 -39.70973,0 c -28.94591,0 -40.18286,-0.4732 -41.4552,-1.7455 -2.51051,-2.5105 -2.51051,-126.36429 0,-128.8748 2.52553,-2.52553 209.25962,-2.52553 211.78522,0 2.5105,2.51051 2.5105,126.3643 0,128.8748 -1.2724,1.2723 -12.50932,1.7455 -41.45523,1.7455 l -39.70973,0 0,10.9092 0,10.9093 8.72741,0 c 8.33953,0 8.72742,0.1616 8.72742,3.6364 l 0,3.6364 -42.90978,0 -42.90977,0 0,-3.6364 z m 139.63859,-96.72879 0,-49.45534 -96.72882,0 -96.72881,0 0,49.45534 0,49.45529 96.72881,0 96.72882,0 0,-49.45529 z m -112.83667,29.53981 c 0.47826,-1.44667 5.29381,-14.73958 10.70123,-29.53981 l 9.83168,-26.90952 6.87852,-0.44334 c 3.78319,-0.24384 6.86849,-0.24384 6.85622,0 -0.0123,0.24383 -4.80724,13.53445 -10.65549,29.53471 l -10.63318,29.09137 -6.92427,0.44844 c -6.12934,0.39696 -6.82444,0.14648 -6.05471,-2.18185 z m -24.62007,-14.89398 c -16.56491,-7.41085 -18.90939,-8.8883 -18.90939,-11.91642 0,-2.96157 2.70851,-4.85431 18.90939,-13.21408 10.40016,-5.36656 19.40031,-9.78481 20.00032,-9.81834 0.60001,-0.0335 1.09092,2.46618 1.09092,5.5549 0,5.61404 -0.004,5.6176 -11.81849,11.01823 -6.50017,2.97131 -11.2457,5.91853 -10.54562,6.54939 0.70008,0.63085 6.0184,2.97617 11.81849,5.21182 l 10.54562,4.06482 0,5.58847 c 0,3.07366 -0.49091,5.55077 -1.09092,5.50471 -0.60001,-0.0461 -9.60016,-3.89066 -20.00032,-8.5435 z m 61.81917,3.0937 0,-5.77599 11.69279,-4.71338 c 6.43106,-2.59236 11.35466,-5.05154 10.94134,-5.46485 -0.41331,-0.41331 -5.51143,-2.91687 -11.32917,-5.56347 -10.4133,-4.73723 -10.58466,-4.90404 -11.0267,-10.73461 l -0.44902,-5.9226 19.72205,9.82908 c 17.52614,8.73467 19.72005,10.23674 19.70399,13.49046 -0.0163,3.29355 -1.86765,4.46511 -18.42854,11.66151 -10.12576,4.40007 -18.95413,8.21831 -19.61861,8.48498 -0.66447,0.26668 -1.20813,-2.11433 -1.20813,-5.29113 z"
       id="path5084"
       inkscape:connector-curvature="0" />
  </g>
</svg>
