<?xml version="1.0" encoding="UTF-8" standalone="no"?>
<!-- Created with Inkscape (http://www.inkscape.org/) -->

<svg
   xmlns:dc="http://purl.org/dc/elements/1.1/"
   xmlns:cc="http://creativecommons.org/ns#"
   xmlns:rdf="http://www.w3.org/1999/02/22-rdf-syntax-ns#"
   xmlns:svg="http://www.w3.org/2000/svg"
   xmlns="http://www.w3.org/2000/svg"
   xmlns:sodipodi="http://sodipodi.sourceforge.net/DTD/sodipodi-0.dtd"
   xmlns:inkscape="http://www.inkscape.org/namespaces/inkscape"
   width="111.60376mm"
   height="67.416077mm"
   viewBox="0 0 395.44638 238.87586"
   id="svg2"
   version="1.1"
   inkscape:version="0.91 r13725"
   sodipodi:docname="gateway.svg">
  <defs
     id="defs4" />
  <sodipodi:namedview
     id="base"
     pagecolor="#ffffff"
     bordercolor="#666666"
     borderopacity="1.0"
     inkscape:pageopacity="0.0"
     inkscape:pageshadow="2"
     inkscape:zoom="0.35"
     inkscape:cx="-520.28698"
     inkscape:cy="404.39902"
     inkscape:document-units="px"
     inkscape:current-layer="layer1"
     showgrid="false"
     inkscape:window-width="1301"
     inkscape:window-height="744"
     inkscape:window-x="65"
     inkscape:window-y="24"
     inkscape:window-maximized="1"
     fit-margin-top="0"
     fit-margin-left="0"
     fit-margin-right="0"
     fit-margin-bottom="0" />
  <metadata
     id="metadata7">
    <rdf:RDF>
      <cc:Work
         rdf:about="">
        <dc:format>image/svg+xml</dc:format>
        <dc:type
           rdf:resource="http://purl.org/dc/dcmitype/StillImage" />
        <dc:title />
      </cc:Work>
    </rdf:RDF>
  </metadata>
  <g
     inkscape:label="Camada 1"
     inkscape:groupmode="layer"
     id="layer1"
     transform="translate(-323.11442,-351.35471)">
    <path
       style="fill:#000000;fill-opacity:1;stroke:none;stroke-width:10;stroke-linejoin:round;stroke-miterlimit:4;stroke-dasharray:none;stroke-opacity:1"
       d="m 435.3616,351.35742 c -0.91285,0.0176 -1.81182,0.11978 -3.23437,0.2832 -5.15156,0.59184 -8.83269,1.49092 -12.08008,2.95118 -0.85587,0.38486 -1.66589,0.70117 -1.79883,0.70117 -0.13295,0 -1.48785,0.74759 -3.01172,1.66211 -5.98194,3.58999 -11.07243,8.41638 -14.78906,14.02148 -1.15953,1.74869 -2.2091,3.17969 -2.33203,3.17969 -0.12292,0 -0.92379,-0.32644 -1.7793,-0.72461 -5.01448,-2.33384 -9.59952,-3.38598 -14.80078,-3.39648 -4.06227,-0.008 -6.91234,0.52441 -11.36524,2.12304 -8.16605,2.93169 -14.70921,8.87298 -18.57226,16.86328 -2.59729,5.37221 -3.52125,9.27677 -3.69922,15.64063 l -0.11524,4.125 -2.14257,0.46094 c -10.52825,2.26333 -17.56319,8.0351 -20.8125,17.07617 -1.41916,3.94876 -2.05886,9.59826 -1.5293,13.5039 0.4311,3.17954 1.66234,7.25042 2.84375,9.4004 4.5887,8.35073 12.63847,14.13176 21.03711,15.10742 1.0537,0.1224 6.26699,0.24067 11.58398,0.26367 l 9.66602,0.043 -1.02539,-1.84375 c -1.35915,-2.43943 -2.92839,-6.42726 -3.39258,-8.6211 -0.2058,-0.97264 -0.49576,-2.3242 -0.64453,-3.0039 -0.52414,-2.39486 -0.32682,-10.02609 0.3418,-13.17969 1.65272,-7.79517 6.3032,-14.44685 13.16211,-18.82422 3.46282,-2.20998 7.29599,-4.12119 9.35742,-4.66797 0.48883,-0.12966 2.07735,-0.5513 3.52929,-0.93554 l 2.64063,-0.69922 0.63867,-2.48047 c 2.43175,-9.44891 7.29392,-17.33015 14.20313,-23.01953 3.67946,-3.02986 6.73303,-4.78611 11.70898,-6.73242 2.22446,-0.87009 6.29877,-1.90413 9.13867,-2.32032 7.15813,-1.04901 13.17973,-0.55983 19.89453,1.61524 1.95814,0.6343 9.13672,4.21298 9.13672,4.55469 0,0.13364 0.27431,0.32919 0.60938,0.43554 0.80969,0.25699 6.19914,5.44897 7.50976,7.23438 l 1.03711,1.41211 1.56446,-0.71485 c 2.14043,-0.97992 6.89431,-1.93 9.86718,-1.9707 1.72731,-0.0237 2.50584,-0.14813 2.60938,-0.41797 0.26023,-0.67816 -0.60818,-4.18872 -2.20899,-8.92383 -1.50749,-4.45917 -3.98217,-9.04799 -7.00195,-12.98437 -1.62852,-2.12283 -6.33482,-6.73309 -8.38672,-8.2168 -5.57519,-4.0314 -13.86488,-7.425 -20.18945,-8.26367 -4.0862,-0.54186 -5.64655,-0.74614 -7.16797,-0.7168 z m 218.5625,7.58008 a 93.336556,113.62709 0 0 0 -67.36133,33.26953 l 8.10742,9.87109 a 81.870098,99.667929 0 0 1 115.78321,0 l 8.10742,-9.87109 A 93.336556,113.62709 0 0 0 653.9241,358.9375 Z m -0.28125,23.54297 a 73.99665,90.082865 0 0 0 -53.4043,26.375 l 8.74219,10.64258 a 61.632986,75.031454 0 0 1 87.16211,0 l 8.74219,-10.64258 a 73.99665,90.082865 0 0 0 -51.24219,-26.375 z m -218.7207,1.99609 c -15.11056,-0.0236 -25.8842,6.33346 -32.27344,19.04102 -1.23825,2.46276 -3.0013,7.43876 -3.53711,9.98633 -0.17048,0.81055 -0.48497,2.26952 -0.69922,3.24218 l -0.38867,1.76758 -1.17969,0.0742 c -0.64843,0.0401 -1.97461,0.21963 -2.94726,0.40039 -15.10609,2.80738 -23.43164,11.69743 -23.43164,25.01758 0,6.3481 1.11531,11.40463 3.52539,15.99023 4.24915,8.08481 11.30414,12.31754 21.9707,13.1836 1.45898,0.11842 28.38297,0.19873 59.83203,0.17773 63.63734,-0.0425 57.92889,0.14658 62.48438,-2.07422 2.595,-1.26507 4.6465,-3.18586 6.59961,-6.17773 1.35781,-2.07999 1.949,-3.41749 2.68164,-6.06445 0.20191,-0.72949 0.49351,-1.67521 0.64843,-2.10157 0.39548,-1.08839 0.37646,-9.5605 -0.0254,-11.16211 -1.49794,-5.96999 -4.11791,-10.049 -8.42578,-13.12304 -2.58794,-1.8467 -7.65818,-3.97071 -9.47851,-3.97071 -0.84302,0 -0.91244,-0.29587 -1.10352,-4.71679 -0.2332,-5.3955 -1.49899,-9.3477 -4.51367,-14.08399 -1.30657,-2.05273 -4.39734,-5.32655 -6.51563,-6.90234 -7.02269,-5.22419 -17.32503,-7.15065 -26.14062,-4.88867 -1.91227,0.49068 -5.46528,1.69679 -6.36133,2.16015 -0.45693,0.23629 -0.8933,0.42969 -0.9707,0.42969 -0.0773,0 -0.97208,-1.02686 -1.98828,-2.2832 -3.45201,-4.26777 -4.82704,-5.54661 -9.19141,-8.55274 -5.06839,-3.49106 -11.52498,-5.35814 -18.57031,-5.36914 z m 218.45703,46.67578 a 4.2857141,4.2857141 0 0 0 -4.28516,4.28711 4.2857141,4.2857141 0 0 0 2.94141,4.06446 l -6.25586,27.58203 -2.04297,0 0,23.14453 -142.33398,0 c -5.54,0 -10,4.46 -10,10 l 0,62.77734 c -0.26827,-0.0383 -0.54087,-0.0644 -0.82032,-0.0644 l -0.39648,0 c -3.10781,0 -5.60938,2.453 -5.60938,5.5 l 0,2.88867 c 0,3.047 2.50157,5.5 5.60938,5.5 l 0.39648,0 c 0.27945,0 0.55205,-0.0261 0.82032,-0.0644 l 0,3.46289 c 0,5.54 4.46,10 10,10 l 180,0 c 5.54,0 10,-4.46 10,-10 l 0,-80 c 0,-5.54 -4.46,-10 -10,-10 l -17.66602,0 0,-23.14453 -2.33984,0 -6.28907,-27.73047 a 4.2857141,4.2857141 0 0 0 2.55664,-3.91602 4.2857141,4.2857141 0 0 0 -4.28515,-4.28711 z m -141.07227,79.28711 70,0 c 2.77,0 5,2.23 5,5 l 0,20 c 0,2.77 -2.23,5 -5,5 l -70,0 c -2.77,0 -5,-2.23 -5,-5 l 0,-20 c 0,-2.77 2.23,-5 5,-5 z m 111.42969,36.42774 a 12.142858,12.142858 0 0 1 12.14258,12.14258 12.142858,12.142858 0 0 1 -12.14258,12.14257 12.142858,12.142858 0 0 1 -12.14258,-12.14257 12.142858,12.142858 0 0 1 12.14258,-12.14258 z m 38.57031,0 a 12.142858,12.142858 0 0 1 12.14453,12.14258 12.142858,12.142858 0 0 1 -12.14453,12.14257 12.142858,12.142858 0 0 1 -12.14258,-12.14257 12.142858,12.142858 0 0 1 12.14258,-12.14258 z"
       id="path4896"
       inkscape:connector-curvature="0"
       inkscape:export-filename="/home/antonio/projetos/node/cardiocare/frontend/src/assets/slides/gateway.svg"
       inkscape:export-xdpi="9"
       inkscape:export-ydpi="9" />
    <path
       style="fill:#000000"
       d=""
       id="path4966"
       inkscape:connector-curvature="0" />
    <path
       style="fill:none;fill-rule:evenodd;stroke:#000000;stroke-width:8;stroke-linecap:butt;stroke-linejoin:round;stroke-miterlimit:4;stroke-dasharray:none;stroke-opacity:1"
       d="m 431.42856,468.07649 0,101.42857 74.28572,0"
       id="path4998"
       inkscape:connector-curvature="0" />
  </g>
</svg>
