<?xml version="1.0" encoding="UTF-8" standalone="no"?>
<!-- Created with Inkscape (http://www.inkscape.org/) -->

<svg
   xmlns:dc="http://purl.org/dc/elements/1.1/"
   xmlns:cc="http://creativecommons.org/ns#"
   xmlns:rdf="http://www.w3.org/1999/02/22-rdf-syntax-ns#"
   xmlns:svg="http://www.w3.org/2000/svg"
   xmlns="http://www.w3.org/2000/svg"
   xmlns:sodipodi="http://sodipodi.sourceforge.net/DTD/sodipodi-0.dtd"
   xmlns:inkscape="http://www.inkscape.org/namespaces/inkscape"
   width="101.12943mm"
   height="28.461113mm"
   viewBox="0 0 358.33263 100.84646"
   id="svg2"
   version="1.1"
   inkscape:version="0.91 r13725"
   sodipodi:docname="github.svg">
  <defs
     id="defs4" />
  <sodipodi:namedview
     id="base"
     pagecolor="#ffffff"
     bordercolor="#666666"
     borderopacity="1.0"
     inkscape:pageopacity="0.0"
     inkscape:pageshadow="2"
     inkscape:zoom="0.175"
     inkscape:cx="1412.628"
     inkscape:cy="220.996"
     inkscape:document-units="px"
     inkscape:current-layer="layer1"
     showgrid="false"
     inkscape:window-width="1301"
     inkscape:window-height="744"
     inkscape:window-x="65"
     inkscape:window-y="24"
     inkscape:window-maximized="1"
     fit-margin-top="0"
     fit-margin-left="0"
     fit-margin-right="0"
     fit-margin-bottom="0" />
  <metadata
     id="metadata7">
    <rdf:RDF>
      <cc:Work
         rdf:about="">
        <dc:format>image/svg+xml</dc:format>
        <dc:type
           rdf:resource="http://purl.org/dc/dcmitype/StillImage" />
        <dc:title></dc:title>
      </cc:Work>
    </rdf:RDF>
  </metadata>
  <g
     inkscape:label="Camada 1"
     inkscape:groupmode="layer"
     id="layer1"
     transform="translate(498.42029,-251.64201)">
    <path
       style="fill:#000000"
       d=""
       id="path4966"
       inkscape:connector-curvature="0" />
    <path
       style="fill:#000000"
       d="m -470.49471,349.37648 c -12.59551,-6.29405 -23.23549,-19.91101 -26.55205,-33.98109 -6.52985,-27.70211 10.86429,-55.84039 38.55329,-62.36715 27.70046,-6.52946 55.43318,10.62135 62.29317,38.52411 4.24038,17.24755 -0.99916,35.58606 -13.8346,48.4215 -6.30416,6.30417 -16.83042,12.51461 -21.21136,12.51461 -2.29003,0 -2.34028,-0.20467 -2.34028,-9.53212 0,-6.05442 -0.52778,-10.79528 -1.44661,-12.99435 -1.42734,-3.4161 -1.41069,-3.46989 1.25,-4.03723 13.74841,-2.93161 20.19661,-10.96693 20.19661,-25.16768 0,-2.9989 -0.80051,-6.35554 -2.10039,-8.80718 -1.45073,-2.73616 -2.15931,-6.06833 -2.2909,-10.77319 -0.261,-9.33212 -2.01737,-10.04932 -12.13718,-4.95609 -3.52385,1.77353 -4.67605,1.87982 -10.22153,0.94296 -4.38719,-0.74117 -8.11281,-0.74117 -12.5,0 -5.54548,0.93686 -6.69768,0.83057 -10.22153,-0.94296 -10.02023,-5.04311 -11.98748,-4.31633 -12.13105,4.4817 -0.0678,4.15344 -0.82369,7.81286 -2.22804,10.78614 -2.56971,5.44057 -2.83231,13.86959 -0.62685,20.12055 2.68469,7.60921 8.64951,12.17572 18.72148,14.33266 l 2.76401,0.59193 -1.65354,3.22743 c -2.05956,4.01991 -3.06517,4.69289 -7.04115,4.71212 -1.74166,0.008 -3.35541,0.35281 -3.5861,0.76531 -0.23069,0.4125 -0.29661,0.22474 -0.14648,-0.41724 0.15013,-0.64198 -0.41042,-1.42948 -1.24568,-1.75 -2.1452,-0.82319 -2.56355,-0.7291 -1.85507,0.41724 0.33992,0.55 0.0933,1 -0.54797,1 -0.65502,0 -0.89858,-0.69691 -0.55577,-1.59024 0.84437,-2.2004 -0.39415,-3.99643 -1.56296,-2.26652 -0.7473,1.10605 -0.8871,1.07958 -0.75651,-0.14324 0.0881,-0.825 0.10686,-2.05094 0.0417,-2.72432 -0.16696,-1.72521 -5.98039,-4.54265 -7.8739,-3.81604 -1.29484,0.49688 -1.03196,1.17659 1.4783,3.82235 1.67926,1.76991 3.78795,4.67627 4.68597,6.45859 2.38462,4.73281 5.97638,6.68799 12.28617,6.68799 l 5.39199,0 -0.29351,5.53572 c -0.36943,6.9676 -1.81748,7.36322 -10.70168,2.92373 z m 4.90817,-12.88802 c 0,-0.55 0.47656,-1 1.05902,-1 0.58246,0 0.7809,0.45 0.44098,1 -0.33992,0.55 -0.81648,1 -1.05902,1 -0.24254,0 -0.44098,-0.45 -0.44098,-1 z m 108.5,-1.87131 c -3.3,-0.95085 -7.14758,-2.48663 -8.55017,-3.41283 -8.14762,-5.3803 -12.37289,-20.19558 -9.94799,-34.88115 2.33328,-14.13072 8.51711,-21.18605 20.86596,-23.80666 5.00637,-1.06242 7.12777,-1.0129 13.65796,0.31879 4.25204,0.86712 7.93198,1.77756 8.17763,2.02322 0.59295,0.59295 -0.68618,8.98406 -1.59325,10.45173 -0.51061,0.82619 -1.68737,0.87305 -4.15466,0.16544 -1.89325,-0.54298 -5.62724,-0.98723 -8.29775,-0.98723 -11.0418,0 -15.71302,5.8656 -15.58165,19.56572 0.0947,9.87727 1.61958,14.27815 5.96977,17.2291 2.63881,1.79004 4.49062,2.22998 8.41855,2 l 5.0356,-0.29482 0.29772,-6.25 0.29771,-6.25 -4.54771,0 -4.54772,0 0,-5.53383 0,-5.53383 10.75,0.28383 10.75,0.28383 0.27583,15.21002 c 0.3188,17.57943 0.69375,16.86998 -10.42017,19.71636 -7.51737,1.92526 -9.24675,1.89472 -16.85566,-0.29769 z m 67.08137,0.0775 c -7.76967,-2.69523 -9.01754,-5.17595 -9.41602,-18.71874 l -0.33465,-11.3734 -3.16535,-0.30704 c -2.94446,-0.28562 -3.18662,-0.59976 -3.47013,-4.50146 -0.29666,-4.08257 -0.2112,-4.21197 3.20495,-4.85284 l 3.50973,-0.65843 0.29505,-6.14716 0.29505,-6.14712 6,0 6,0 0.2999,5.75 0.29991,5.75 4.45009,0 4.4501,0 0,5.5 0,5.5 -4.5,0 -4.5,0 0,8.41821 c 0,4.63002 0.27412,9.13256 0.60915,10.00564 0.34221,0.89177 2.31423,1.86008 4.5,2.20959 3.81724,0.61041 3.89085,0.70304 3.89085,4.89654 0,3.89524 -0.27933,4.37175 -3.14922,5.37219 -3.83725,1.33768 -3.28816,1.3789 -9.26941,-0.69594 z m 75.58663,0.10416 c -7.39125,-2.61342 -8.15988,-4.93018 -8.16426,-24.60811 l -0.004,-16.79767 6.25,0.29771 6.25,0.29772 0.27661,14.72906 c 0.25992,13.84014 0.40461,14.79756 2.39747,15.8641 1.58558,0.84858 3.09317,0.84374 5.97339,-0.0192 l 3.85253,-1.15424 0,-15.00758 0,-15.00757 6.25,0.29771 6.25,0.29772 0.27071,20.25 0.2707,20.25 -4.43737,0 c -2.44056,0 -4.60801,-0.51192 -4.81657,-1.1376 -0.26138,-0.78412 -2.24996,-0.4734 -6.39992,1 -6.9773,2.47723 -8.35748,2.52071 -14.21955,0.44799 z m 53.332,0.33426 c -2.2,-0.71252 -5.0125,-1.83988 -6.25,-2.50525 -1.8816,-1.01169 -2.25,-0.95841 -2.25,0.32542 0,1.15281 -1.12083,1.53518 -4.5,1.53518 -2.475,0 -4.52192,-0.3375 -4.54871,-0.75 -0.50714,-7.80924 -0.48682,-57.3835 0.0239,-58.2098 0.44274,-0.71636 2.93593,-1.03463 6.61761,-0.8448 l 5.9072,0.30464 -0.0922,9.82536 c -0.0894,9.53175 -0.0297,9.80569 2,9.16669 1.15071,-0.36228 4.39261,-0.89677 7.20423,-1.18776 6.81444,-0.70526 11.31466,1.46569 14.47306,6.98193 2.08489,3.64132 2.41282,5.5044 2.41379,13.71378 9.3e-4,7.88761 -0.38826,10.29041 -2.29308,14.15703 -3.43167,6.96599 -10.98321,9.98875 -18.7058,7.48762 z m 4.1871,-10.25849 c 2.61568,-0.70146 4.3129,-5.0185 4.3129,-10.97028 0,-8.82247 -3.44728,-12.23562 -10.41489,-10.31177 l -3.58511,0.9899 0,9.36966 c 0,9.3113 0.0171,9.37592 2.75,10.37405 3.36917,1.23053 4.16042,1.29308 6.9371,0.54844 z m -166.24136,8.33305 c -0.27031,-0.70444 -0.36869,-9.81694 -0.21861,-20.25 l 0.27287,-18.96917 6.25,-0.29772 6.25,-0.29771 0,20.54771 0,20.54772 -6.03138,0 c -3.97996,0 -6.19856,-0.43563 -6.52288,-1.28079 z m 51.55426,-28.71917 0,-30 6.5,0 6.5,0 0,11 0,11 8.46617,0 8.46617,0 0.28383,-10.75 0.28383,-10.75 6.25,-0.29772 6.25,-0.29771 0,30.04771 0,30.04772 -6.5,0 -6.5,0 0,-13 0,-13 -8.5,0 -8.5,0 0,13 0,13 -6.5,0 -6.5,0 0,-30 z m -49.36514,-16.07258 c -3.67782,-2.89297 -3.64426,-7.98826 0.0719,-10.91136 6.98249,-5.49243 15.14123,4.2269 8.83873,10.52939 -2.99863,2.99864 -5.45043,3.10374 -8.91059,0.38197 z"
       id="path5186"
       inkscape:connector-curvature="0" />
  </g>
</svg>
