<?xml version="1.0" encoding="UTF-8" standalone="no"?>
<!-- Created with Inkscape (http://www.inkscape.org/) -->

<svg
   xmlns:dc="http://purl.org/dc/elements/1.1/"
   xmlns:cc="http://creativecommons.org/ns#"
   xmlns:rdf="http://www.w3.org/1999/02/22-rdf-syntax-ns#"
   xmlns:svg="http://www.w3.org/2000/svg"
   xmlns="http://www.w3.org/2000/svg"
   xmlns:sodipodi="http://sodipodi.sourceforge.net/DTD/sodipodi-0.dtd"
   xmlns:inkscape="http://www.inkscape.org/namespaces/inkscape"
   width="210mm"
   height="297mm"
   viewBox="0 0 744.09448819 1052.3622047"
   id="svg2"
   version="1.1"
   inkscape:version="0.91 r13725"
   sodipodi:docname="arch.svg">
  <defs
     id="defs4" />
  <sodipodi:namedview
     id="base"
     pagecolor="#ffffff"
     bordercolor="#666666"
     borderopacity="1.0"
     inkscape:pageopacity="0.0"
     inkscape:pageshadow="2"
     inkscape:zoom="1.979899"
     inkscape:cx="490.75203"
     inkscape:cy="634.64846"
     inkscape:document-units="px"
     inkscape:current-layer="layer1"
     showgrid="false"
     inkscape:window-width="1301"
     inkscape:window-height="744"
     inkscape:window-x="65"
     inkscape:window-y="24"
     inkscape:window-maximized="1" />
  <metadata
     id="metadata7">
    <rdf:RDF>
      <cc:Work
         rdf:about="">
        <dc:format>image/svg+xml</dc:format>
        <dc:type
           rdf:resource="http://purl.org/dc/dcmitype/StillImage" />
        <dc:title></dc:title>
      </cc:Work>
    </rdf:RDF>
  </metadata>
  <g
     inkscape:label="Camada 1"
     inkscape:groupmode="layer"
     id="layer1">
    <path
       id="path4896"
       style="fill:#000000;fill-opacity:1;stroke:none;stroke-width:10;stroke-linejoin:round;stroke-miterlimit:4;stroke-dasharray:none;stroke-opacity:1"
       d="m 557.5,352.36133 a 4.2857141,4.2857141 0 0 0 -4.28516,4.28711 4.2857141,4.2857141 0 0 0 2.94141,4.06445 l -6.25586,27.58203 -2.04297,0 0,23.14453 -142.33398,0 c -5.54,0 -10,4.46 -10,10 l 0,80 c 0,5.54 4.46,10 10,10 l 180,0 c 5.54,0 10,-4.46 10,-10 l 0,-80 c 0,-5.54 -4.46,-10 -10,-10 l -17.66602,0 0,-23.14453 -2.33984,0 -6.28906,-27.73047 a 4.2857141,4.2857141 0 0 0 2.55664,-3.91601 4.2857141,4.2857141 0 0 0 -4.28516,-4.28711 z m -141.07227,79.28711 70,0 c 2.77,0 5,2.23 5,5 l 0,20 c 0,2.77 -2.23,5 -5,5 l -70,0 c -2.77,0 -5,-2.23 -5,-5 l 0,-20 c 0,-2.77 2.23,-5 5,-5 z m 111.42969,36.42773 A 12.142858,12.142858 0 0 1 540,480.21875 a 12.142858,12.142858 0 0 1 -12.14258,12.14258 12.142858,12.142858 0 0 1 -12.14258,-12.14258 12.142858,12.142858 0 0 1 12.14258,-12.14258 z m 38.57031,0 a 12.142858,12.142858 0 0 1 12.14454,12.14258 12.142858,12.142858 0 0 1 -12.14454,12.14258 12.142858,12.142858 0 0 1 -12.14257,-12.14258 12.142858,12.142858 0 0 1 12.14257,-12.14258 z m -8.66454,-164.38825 a 73.99665,90.082865 0 0 0 -53.40389,26.37504 l 8.74239,10.64298 a 61.632986,75.031454 0 0 1 87.16216,0 l 8.74259,-10.64298 a 73.99665,90.082865 0 0 0 -51.24325,-26.37504 z m 0.28243,-23.54171 a 93.336556,113.62709 0 0 0 -67.36167,33.26839 l 8.10789,9.87067 a 81.870098,99.667929 0 0 1 115.78186,0 l 8.1081,-9.87067 a 93.336556,113.62709 0 0 0 -64.63618,-33.26839 z" />
    <path
       id="path4184-6"
       style="fill:#000000;fill-opacity:1;stroke:none;stroke-width:5.73400021;stroke-linejoin:miter;stroke-miterlimit:4;stroke-dasharray:none;stroke-opacity:1"
       d="m 158.17283,402.03455 c -28.28432,10e-4 -32.15917,0.19398 -35.20508,1.75 -2.95232,1.50822 -6.28336,6.76307 -24.248048,38.24804 -22.573148,39.56179 -23.214278,41.16068 -18.580078,46.46094 4.861498,5.56021 13.149348,4.96273 17.177738,-1.24023 1.3287,-2.04596 8.337368,-14.07071 15.574218,-26.72071 7.23685,-12.65 13.57182,-23.42672 14.07812,-23.94921 0.56096,-0.57891 0.91992,31.49701 0.91992,82.11523 l 0,83.06445 2.13282,2.70899 c 0.79405,1.00948 2.0263,2.11393 3.18945,2.9375 l 12.30078,0 c 1.20205,-0.83919 2.548,-2.24838 3.37305,-3.60157 1.92026,-3.14959 1.996,-5.0646 2,-50.02539 l 0.004,-46.75 7.47266,0 7.47266,0 0.27734,47.91993 0.27734,47.91992 2.42579,2.58008 c 0.74772,0.79568 1.58266,1.48283 2.30859,1.95703 l 12.45117,0 c 1.15147,-0.84361 2.32935,-1.99287 3.01367,-3.03711 1.68928,-2.57774 1.83213,-7.95805 2.30078,-85.79492 l 0.5,-83.04493 15.45899,26.86329 c 8.50162,14.7746 16.37662,27.44994 17.5,28.16796 4.34793,2.77904 9.98805,2.17603 13.61914,-1.45507 5.62465,-5.62464 5.28429,-6.50675 -18.23047,-47.46289 -18.68058,-32.53638 -21.53897,-37.00519 -24.4668,-38.22852 -2.58912,-1.0818 -10.27684,-1.38381 -35.09765,-1.38281 z m -0.23242,-50.6543 c -7.56003,-0.0156 -15.12398,3.50926 -19.65235,11.23633 -6.94461,11.85009 -2.10121,28.01148 10.04688,33.5293 5.35285,2.43133 14.75848,2.43133 20.11133,0 8.66764,-3.93696 14.29817,-14.25885 13.13476,-24.08204 -1.54861,-13.07561 -12.59136,-20.66074 -23.64062,-20.68359 z m 1.58951,-52.56109 a 93.336556,113.62709 0 0 0 -67.361668,33.26839 l 8.107888,9.87067 a 81.870098,99.667929 0 0 1 115.78186,0 l 8.1081,-9.87067 a 93.336556,113.62709 0 0 0 -64.63618,-33.26839 z m -0.28243,23.54171 a 73.99665,90.082865 0 0 0 -53.40389,26.37504 l 8.74239,10.64298 a 61.632986,75.031454 0 0 1 87.16216,0 l 8.74259,-10.64298 a 73.99665,90.082865 0 0 0 -51.24325,-26.37504 z"
       inkscape:connector-curvature="0" />
    <path
       id="path4184-6-3"
       style="fill:#ff1514;fill-opacity:1;stroke:none;stroke-width:5.73400021;stroke-linejoin:miter;stroke-miterlimit:4;stroke-dasharray:none;stroke-opacity:1"
       d="M 318.74785,-52.917641 A 403.48454,491.19849 0 0 0 27.550307,90.898629 l 47.66995,58.033431 a 336.06869,409.12705 0 0 1 475.272653,0 L 598.16399,90.898629 A 403.48454,491.19849 0 0 0 318.74785,-52.917641 Z m 1.54002,-128.366819 A 508.94,619.57908 0 0 0 -47.017863,0.11941857 L -2.8076229,53.941589 a 446.41641,543.46336 0 0 1 631.3284229,0 L 672.73215,0.11941857 A 508.94,619.57908 0 0 0 320.28787,-181.28446 Z"
       inkscape:connector-curvature="0" />
  </g>
</svg>
