<?xml version="1.0" encoding="UTF-8" standalone="no"?>
<!-- Created with Inkscape (http://www.inkscape.org/) -->

<svg
   xmlns:dc="http://purl.org/dc/elements/1.1/"
   xmlns:cc="http://creativecommons.org/ns#"
   xmlns:rdf="http://www.w3.org/1999/02/22-rdf-syntax-ns#"
   xmlns:svg="http://www.w3.org/2000/svg"
   xmlns="http://www.w3.org/2000/svg"
   xmlns:sodipodi="http://sodipodi.sourceforge.net/DTD/sodipodi-0.dtd"
   xmlns:inkscape="http://www.inkscape.org/namespaces/inkscape"
   width="128"
   height="128"
   viewBox="0 0 128 128"
   id="svg2"
   version="1.1"
   inkscape:version="0.91 r13725"
   sodipodi:docname="help.svg">
  <defs
     id="defs4" />
  <sodipodi:namedview
     id="base"
     pagecolor="#ffffff"
     bordercolor="#666666"
     borderopacity="1.0"
     inkscape:pageopacity="0.0"
     inkscape:pageshadow="2"
     inkscape:zoom="2.8"
     inkscape:cx="56.464678"
     inkscape:cy="58.716015"
     inkscape:document-units="px"
     inkscape:current-layer="layer1"
     showgrid="false"
     units="px"
     fit-margin-top="0"
     fit-margin-left="0"
     fit-margin-right="0"
     fit-margin-bottom="0"
     inkscape:window-width="1301"
     inkscape:window-height="744"
     inkscape:window-x="65"
     inkscape:window-y="24"
     inkscape:window-maximized="1" />
  <metadata
     id="metadata7">
    <rdf:RDF>
      <cc:Work
         rdf:about="">
        <dc:format>image/svg+xml</dc:format>
        <dc:type
           rdf:resource="http://purl.org/dc/dcmitype/StillImage" />
        <dc:title />
      </cc:Work>
    </rdf:RDF>
  </metadata>
  <g
     inkscape:label="Camada 1"
     inkscape:groupmode="layer"
     id="layer1"
     transform="translate(-90.571442,-819.87683)">
    <g
       transform="matrix(1.481203,0,0,1.481203,60.452551,790.24379)"
       style="font-style:normal;font-weight:normal;font-size:20px;line-height:125%;font-family:sans-serif;letter-spacing:0px;word-spacing:0px;fill:#ffffff;fill-opacity:1;stroke:none;stroke-width:1px;stroke-linecap:butt;stroke-linejoin:miter;stroke-opacity:1"
       id="flowRoot4135">
      <path
         d="m 69.543945,75.565541 -17.626953,0 0,-2.392578 q 0,-4.003906 1.611328,-7.080078 1.611328,-3.125 6.78711,-7.910156 l 3.125,-2.832032 q 2.783203,-2.539062 4.052734,-4.785156 1.318359,-2.246094 1.318359,-4.492187 0,-3.417969 -2.34375,-5.322266 -2.34375,-1.953125 -6.542968,-1.953125 -3.955078,0 -8.544922,1.660156 -4.589844,1.611328 -9.570313,4.833985 l 0,-15.332032 q 5.908203,-2.050781 10.791016,-3.027343 4.882812,-0.976563 9.423828,-0.976563 11.914063,0 18.164063,4.882813 6.25,4.833984 6.25,14.160156 0,4.785156 -1.904297,8.59375 -1.904297,3.759765 -6.494141,8.105469 l -3.125,2.783203 q -3.320312,3.027343 -4.345703,4.882812 -1.025391,1.806641 -1.025391,4.003906 l 0,2.197266 z m -17.626953,7.226563 17.626953,0 0,17.382816 -17.626953,0 0,-17.382816 z"
         style="font-style:normal;font-variant:normal;font-weight:bold;font-stretch:normal;font-size:100px;font-family:sans-serif;-inkscape-font-specification:'sans-serif Bold';text-align:center;text-anchor:middle;fill:#ffffff"
         id="path4138" />
    </g>
  </g>
</svg>
